<mxfile host="app.diagrams.net" agent="Mozilla/5.0 (X11; Ubuntu; Linux x86_64; rv:130.0) Gecko/20100101 Firefox/130.0" version="24.7.13">
  <diagram name="Page-1" id="itN_hR_YZU7Qg2WNrs12">
    <mxGraphModel dx="2452" dy="747" grid="1" gridSize="10" guides="1" tooltips="1" connect="1" arrows="1" fold="1" page="1" pageScale="1" pageWidth="850" pageHeight="1100" math="0" shadow="0">
      <root>
        <mxCell id="0" />
        <mxCell id="1" parent="0" />
        <mxCell id="3Ph-vzCZU_7M0fR3x5FZ-1" value="" style="whiteSpace=wrap;html=1;aspect=fixed;" vertex="1" parent="1">
          <mxGeometry x="-40" y="240" width="200" height="200" as="geometry" />
        </mxCell>
        <mxCell id="3Ph-vzCZU_7M0fR3x5FZ-3" value="" style="whiteSpace=wrap;html=1;aspect=fixed;" vertex="1" parent="1">
          <mxGeometry x="440" y="240" width="200" height="200" as="geometry" />
        </mxCell>
        <mxCell id="3Ph-vzCZU_7M0fR3x5FZ-4" value="" style="shape=image;verticalLabelPosition=bottom;labelBackgroundColor=default;verticalAlign=top;aspect=fixed;imageAspect=0;image=data:image/png,iVBORw0KGgoAAAANSUhEUgAAAXsAAABqCAYAAABdw/GBAAAABHNCSVQICAgIfAhkiAAAIABJREFUeF7tnQVYVFkbx/8zw8zQIEqKgmARdiwqdmDjrrl2r51rt2J3oa7d+tm4dnfHYmCjIIqFgknMvN+ZYYBhhrgoYp37PPPo3HvuOe/7O3fOPcX7FykUCgI7xGKx6h9+cAKcACfACfyEBHgL/xNWKneJE+AEOAFdAryx1yXCv3MCnAAn8BMS4I39T1ip3CVOgBPgBHQJ8MZelwj/zglwApzAT0iAN/Y/YaVylzgBToAT0CXAG3tdIvw7J8AJcAI/IQHe2P+Elcpd4gQ4AU5AlwBv7HWJ8O+cACfACfyEBHhj/xNWKneJE+AEOAFdAryx1yXCv3MCnAAn8BMS4I39T1ip3CVOgBPgBHQJfL3GnqJwfskg9Jh/FrG6pfLvnAAnwAlwAllK4Cs29m9wdvUsLD0agrgsdSmrClPg6UE/NP3NFTZmRjCxygWP8i2x6NrP6W1WUeXlcAKcwNchkHJjH/0A24f/gVJOVjCSGcLcLh+8GgzC9hDl17HiB8yVXm1Cr6ZjcNq6LeZuP4QD25bCr3M9FLaTCPTmDVbXN4Ks6BgEKuJvUQRNQEnGu8Y/4VCHIuVH5hBQ3MEULxlEIlHSR2KNDntj1PnT663oWMAGZnIJxBIpjNmLu1DVdph66Ak0VZM5dgjMJXpLUxiLtWzVslts1hzbopNn9PHuOrR3M4VL35Pf9ShamF+E15eWoV/9EnC2MobcJAdcyzTHpMPh+JFbH2G+x+LhrrFoVakgbE3lzHcb5K/QBjNOvMyU9sBA//mLw+XxDdBstghNxy3FtDI5IX51C2eORSK7VcrvBv08fv4ziuBA3HifG02GDkbTstKMO6x4jIePxRDfDUDAreEo7AHcC9iBWyzUdO6Hj1kjY4cUKifj5fA7AIkz2q+7gtof4l+hyuClaNFoTRKZ2Ag8fhSJUmNOYU4dGd4+vY6dU4dgaINQmATuR7c8Wfvcy6pPw8VrI6Bk5kYF9EDlMYSRh+fD1wIQSSyRWxZvetzLK9g8dwL8Zu/A7fdKOH7ndS3IL8U9rBk0FsfsO2LUionIqbiLrROGYXijT3AM2oKWtqLv3MuUzRPkOySQfoyGRbUBWDQsD4wjb2DrtFEY2EgJlzur0YDV/xcdqnj2qk/ioQileZVlZNRwA71LOpvC/6Ip9OAM6uRTmHJZGpJUZkzZHD2p3swrFKtKrXhEsyvISJwjD+WzNSW53IwcCvvS8H9D4q8n5Kh4QafmdqbqRXKTpZERWbmUo9YzT9ILZXyC2EszqK6nA5kbmZKNe03q1L0hFbMzJ0vnSvT3rqeUaHk6+aTgQMqnYkNp3/hmVNrJggwNLcnZqzmN3x+aZHPMUeqZW6JqNXQ+Mioz7V6SPSnnnnQ2eh91ylmafOvmodITblJc3F2aWs6V6jUoRdlbbKdPmpTKZ5uoU5FcZGUsJYnUhGwLVqWuy67SWw0fUr6kvcPrUhn33GRtrqoHM8pZ1JeGBTykGG0b0uMTF0hjisrIvssBik6479Mmamwoo/KzgtV+vdnUlLIZuFDfk9o5x9G1ccVIlq0ZbY7U3JheWSyZMuIMLezbnKoVz0eOOcxIbiAlIwtH8pl9i+K07VY+p53dCpFVNg/qsuMZJbitnSSj/48LmkilZDmo/Z54T5XPFpOP3JB810QlZhV3fRwV00ojqAxFMO2ct5QO3X+bKXYyShSxoi777dSm5a90PY+lq2O8KE+5tjRl5/+ob0EZOfc5kbzOBRktIFGW+sW8jolJ1kZEH+9NzlIH6noo8ckUYHQmJcli33Wt/hTQiiylRWlMYLJfhW4yQd/1uyzi7HBzt0fcmQ1YG/QhlReJEk82tYd3rWE4JPHBgPkbsWvPDqya0h3Nyjiz91PSIclZHYMWbcHuHYvQ1ekKJv/ZDv88TBiQfcC50T7wGXMNBbouwK5j+7G0iz1OD6mPNstC1MM2xZOrOHU3D/rsPoRFVR9jxbKnqLNiF+ZVeYK5vafhnHr1N/18UnFE53QUjg70ge/Em3DruwwBAYvRM28gJtSrgQFHo+LTSktj+OEbuLaxI5xlzui48RqCgoLYJxAb2ueGPtBUSv74DM/emqBiy/qI3LkTdx7sxM5XddGiohliXr5AlGYeR5StKJoNW4ith87g3LEt8Kv0Bmv+aoKxZ+OnIEDvcfv4flw0/QNzN/yLPdv80SnnZca5NfzvJUxCZA4f8yq+qGwSin27A5PWYVjP69+AGzCp1gBVzITXhfLZUSydvwNRv/XHjJXbceDIQexcOwN/+yR/fhB3F0f23UTE61vYd/RuFqz/KPDh6RVs8t+CB46/o2HpDIza3gXj3IZRqFsgNzzq9sacXUF489XmgQxQZMRp3D+5HANq5oHh1+zwZqlfbPQilWqNaglvw8IQZeCK/M7fYKybxb4ntRYKvHt0DPMWH0acex3UyCd0ejiV9kZ1Wq9nz94RysiLNK+5J1ka21OppkNo8eFgeq/97og+QX1cDMjSZyEFp/bC0fTsDRttpA+aexUhc6mSzJBqLX2u7vkow5dRHTMr+mNN/Pf4ZG9oY2MLkleaSyGsO/lpZ2vKZvQHrWfDjOhd7Si7kS+pOmDRezuSjVFdWvlaWD5CXn3KsH/Ix0RGpSfeTOpZxN6gCaVkZFJzMT3R6lzFnhtI+eX5aeA59Tgmw4fi3jQqY1qDFoWcpgEeZah7jwrk3v8kPV5Sk0xLTaSg1Li+30YtLGVUdrpmFJES59D5VFkupxqLwgVzJgE9e9UoYl1DS5J6jqDLGrfjrvtRcZk1tdwW360XUqcqWLq969QBKij8uD+NGDGfjoVrjUBTvyHdK7plx/fsRSSSSEgiYf+yUZvIxJO6BYQljjLU9W2gO5qL/y7J05eSBjux9DJwO83oUYfcrWRk6lKFOk3aRJefJxtnpWtjfIK0evZaWcReoCFu+j17ITYLSRNf0jfwixUcfXc5NcxlQoUHnqCEcZcQmzMrzbfwXRmxinxNJcTWmEhsXYUmX3gr8HlJO1mKr0qReQl0X/sfWt07jP8tXwz/Jh4YU2wI1m0YhvJWIihDz+HcYwnKDGsIpwy8cMS2LshjpsS1Z69Yr90aisCzuPT+DV62zwWjDklvJIqLgdIlBE9Y195G+0WlWrRivy9SdfnZ3LaY5aJkE5uxAvLJJaDLHXv9Aq7G5GYLJHmTehYG+VC5khNGrbmIG7EdYa+ZL03j/SnokjLiJV6TAWQmJdCkfiTKTVeg97FSML0rBUW9SezZK56fwLzh47D8YCBCXithZmOKD2zuOTeb20ttEVdso+JMCHwVwQjZCuKcS0jPUJQdtVvUgWXTrdgSOBLFioONcDbium1DTPYxV/udWXWRBFEM2/JdMba8IKxfkEiGyuOPYXYdQ3yMCEXgrlkY2cwb71aexPJGDjDw7IMdF//EpxSgi+Q2yJv4SzJA9kK+6DvXF30mh+Dk6nHoPagpSs7tggMP5qNKJj0/QhwVYrOQNPFlZb1f7wP90aLeINysuBj7/LyhHjiyQ4jNmZXmW/gusqiPuWfOof+j/7B3gR9G+9QGDh7AwGJyIdWeapoUG/v41GKY562GjuOroU3nVfjTqyM6TKqGG1O8IBGpGtrP0a01gAErUanUTOMQa7gledB+7Q709Uz+1hDJrJBb1zqRBBKJmO2o0PEno/mkiiN+Ij7ly7qFppxK6Fkla9AjSQaZVIYSA//F2cYE56IySB/JQG+j8E6FSBmMRc3rYuCDKhg1eSNqFswG5cv9GNVoGMLTLEjMOKk4a1omIXwU7B5WqXGxaW8dtfBpi4Z2dfC/9Rcw0j0WK9bchmuLpahopDFISFlp2p4FF9nzp2TdhuQ1KoKZozs8PVVNShGUKl8G0iAndJ6/FX5/9EAuY1vk87QGc0/vELHfgyRZZgq8CdqHNYv/weLVe3DPvAxadvsdBXWfZ72cMvmEEJuFpEk0K6v8IkSdn4wGdSfgJVtIPzzHF47a7ITYnFlpstx3VqDYArk8S6g/5au64q1bdcxZfAp9/KvgS/oKAvq7gDR3NVT1ECP0zn18UtniWAIlHBQ4s2U7Qr9gTlJaqDSKyUJx9upHOBUsiIJanwIuNkhoPxJ4y3z+QfjbbWgR34lMrIaM5pPaT0rqWYrZE4LjR+8lzQ2r5oyPPoKsSAl4ZGD6NrUyEs4rI1W9dylr7NkcpWUeFCvmgmyswZBIDSB6F4W3qkYl9hrOXPwIz/Z+GNS4IooXKoyS5YrDKYMTtIL4iK1hay1G5L27eJbWHjfjSvirXUGErFvMGvwFWPfMC391KoEENILKSg9OsutKPDuxEKNG+uN4moYJzzT60X2EkRWss6f1+CvZFCerBDHrYLB6iTs/BO6GUkjZfLLuR57vb5xSrR3FhuP8unFox0aGjoWbYdY1O7RcdB6P7p/EysHV4JBWccLNF5xSiM1C0mS1X8qnm/BXQz88a7ge++bpNPTMeyE2Z1aarPZdr3JVHWv23LDpdr1LGT2h39dQPsWWEWNxw9kH3p6OsJRE4d5hf8w4aYASE0rCWFWCzBv9xtTDpvZsW1i9m+jTujLcbOSIi3qKYJRApwbugrYNiuybYXjPeagxpT5qvhmALrUKwUb6AeF3QmFVrytqOQn7dWRaPg7NMLjzTNQa3xQd5CPxp5sS19eMxfhAV3Ta2wT2mda5J3x8+xYKaTbIdPM0kEIS8xZvVXupTdxYAy/F5nWTML/IXyjnaAJl5BWERqfQvUyj5gXxEeVAtfrekPeegi7jsqNXpZyQRJzHY9bwJ39IDFC4YzdUnNkHXXsSjH3XopXW1kRBZaVhq96l2LOY2q4Hpt8H1rwrglszyiW+WPTSpnRCGYa1Pfvhimdz1C/hANHTU1g0dD0iXHuifmFtz1hvMuwO7t41YdM4j3Bh00QM2y9H5fm1YMfqSCxkGufDFSwdvwmvavTHpkWt4FPAQviCfUq2p3fu03Pcu/8cn+Lu4wV7JmJfPcCN69lgZOWM/A4mmTbdgSz1KwZnpw/DVvLFwg5OeHXzOl5pOIjNHFHAyTLT/BIy1ZOlvivDsXf2EgTnLI4CtiZsOvchTq+aiMWPndChqdcX9erVCPUWaOMe0I4RLahKofjtfgYyU7bdryK1mXyQwpItGn6i4D2TqX1VD3Iwl7OFLRmZ2btR5UF7SL1LLIWFQ1JtN7SVUXG/G0nb69g2vTP+3ahm4ZxkITcgAyMrcir2O825Gr8CqL1Aq738EL2/M9kZaW1JSyeftJcutK6yrZd7xzamEo5mJJObU66STWjsXp3toiz5ly3QKihkbiWS52hPu3V2k0XvaktWhlXIPyx+NTg6OIBGNCpNLjZse6KULRRb2lBu97LUeX1I/DbPTOKsJsB83zOyARV1MCUpW6yUm1lTniLVaOCuFzpbCd/S/i5ObCtoYRpxOYWFRwF1obtImmr9qLdeelK2z916GRdCe/1aUvn81mQilZDM3JGK+Q6mzXc+JhapjNhC7V0syVC1OCtS+W1L+bx+p37LLlGE7o7HVA1VXVASmzrLxCPtBdrYi0PJXW/RWJx8+2ymWJOFfrGtjjPLy1S9Gb2PvNbSxC3ZmeKWoEyy0He2/Xp9r7pUylX1rBqQ3Nye3Cq2JL9/gxO3YgsyOZVEIlVjr2r0xaqxAj84AU6AE+AEfkoCvIX/KauVO8UJcAKcQHICvLHnTwQnwAlwAr8AAYPIyNe/gJu/tou+vr9jx45tvzYE7j0n8IsT4D37X/wB4O5zApzAr0GAN/a/Rj1zLzkBTuAXJ8Ab+1/8AeDucwKcwK9BgDf2v0Y9cy85AU7gFyfw+Y294j7mVLeHlVWOpE+OAuh5SBN69zsDS2/+Ra9SBZDLzgbZc9jBwaUwyjXoibnHwr+JGlFG8Xy6vwU9f8uNYsNS0PSlN7j0T0/4FHWFvb0LitbogUWXXqcaKC3VshVBmFZJp06tcqLlpndJt2RKWbEI2T8VXep5oYCjA+xyFkCpOt3hf+ZVks2xpzG4sG3y50vzrFkXG6EJbZ2qJ8kvfLiFjUMa4bf8uWDvkA/Fa3bHgrOqYHxaR3Qwdo5rhYoezrCzy40CZRpj0LobeJexP1YWaBBPxglkPQH9cAlCbZDkQovFR1D9Y/yvQfloLTq33ST07qxPF/saTx6/RfHBuzGphgzvngVh75xxGNcyDMYnN6ODwNAMWW143KtrCFg8E9MWsoBaH5Rw0DNAicfrmI7AiP9QpM9krCkFnF84mkVs7AGzo6vRPGcG3ufK94h6J0bx/lsx5w9rTaAwMcxyqoNksCOzymKKPJ9iYF6xB2b0d4Jx1C3snDsZo9oq4XRhAeqoYh8ZFEa3NbvRKCaptaWIIxjfdSYeV6qoFWVSD0jyExSBPQOaoNfBvOg9dTNqO0Ti9IJhGNusI6SHN6OjiyoA30ecGtsUnTY7oteUjZjvQri9ZQKG9G2BWPtTmFHZJJ1C+GVO4PsnoN8SKEOwb8laHH/4Pp2eoQzZnQvCzc1N/Snoag1DbX8VNzGlogPc+h9DYl8/OgDt7B1QZ2G8MEncfwvwZzlPODk4sZ5UU/QZ2A6VCuZBnqK+GHngeXzPi/1YD/s1RZWSbnCyt4OtA+sF1u2J+Seff0aPnEU2zMlsdi+MUpWbYujEdnCPvYGr97QiPcY9wZEZnVCtiAvrJbuyXvJfmHH0SWJgNOXT7ejo6YDiPffhhaYdohd70KOII7yGnUoMTaxGQa+wb0AFuLp4o/+ez9GRjMOtpQMw7pgJ/ly0EJ3ypBBPOu4mVvsfAeqOxz+DG6FqtUYY/M841KEjWLAmKGNiHxSJN1ES5HQvCXdNvbq5FYCjueYxybSyxLCvPwxT/m6JOpXKo3L9TpjYvwZM3wThxmNNwCeRKXIXLoGSJUvGf0rkwfNtq3HOuiPmjquG7LoxhVL7rb09gvUBL1G053QM9v0NRUvVQDcm5dfI8ByWrL0WzyfuFg4dfAyHxoMxgKXxLOSFhsOGo4njc5w/F5wxhqnZwc9zAt+YgH5j/z4El7ZORrPSRVCm2VAs2n8HkV8ecC1FNxXh13HugRO6/m8bZlR8gvVrnqGG/3pMKR+OxUPm4ZIqkiB9wN2zJ3DTqinmb2Bx1FeNQyPLM/Br0ghjz7xPMd/0Tyrw8dk17Fi6Ew8daqN+8YSYjW9xclRjNJ95hylnzcH69TPR2eUmZvzZCKNOvlVnK7b3xXT/dpBv7oUeKx8glgUv2jZoALZb9YD/8HIw126EWICqE4dv4/Wbuzh88v5nNBoG8BywB5f3zEXPqk4pqhHRyws4/0CEUtW98WZVc3gU/B2LnnujanER7p27hIiMTEN8eoWX75jIc9wzPI+K0XvZZ2pZiZWkwPvQ01iy6gTiCtRAFdcUXmgs7YczMzF6mwL1h/WBl2n6NZyQgj6woHLsXW6RzSIppLFxYRR3Ax7dvAX1BJXEHi5OUjw9vgdX1OFGgZiHF3DluRWL2e8kKKifcIt4Sk7g2xDQn8Yx88bQ3ZfR5eYBbFy5Ciu6VoKfxW9o2KYd2reohcI5MjHOr8pnkTXyFy/OpoOKwWzVa+Qr7QVflMXwLfdwn6kiltIoFogciqJaxbLq0YN3BabOXaM65s3ajh5eLWAttJfHxhh7urnCuhuLZ64KCWTshvZLBqGKKrYwOyh8O2atDIbH30cxu0t+9Y+8kncBRN+tjOmzt6NXuVawZcH0LSqMxD8Dr6LuiE74+1Z27D3sjIG7+6G4bkxmaUn0njcJJkcJFTuWyli0xoTngZWXlnuK56xhJnOUtjNC1KkQvIz4iNBIY1SxMwVdDceLDLyoFa8+QOJohJODysOjixIW+SugxeAJGOrrApVsgpCybPSfqARP9P6lN/9Dq0I9sYdNT4mye2Pkxt4omZI+A4tcuWn6GjwtPggDa1ulyUO3EFGOkvjNFfBftRAnq/aHt50BPjx5gDBVoy6OQayqbRfZocnEqTjV/G/8Xu4C6jBpxLDdhyHqtRzjqidIZujmzL9zAj8WAf2evdp+A1i510LXyetx+vp5/K+XM67O7IgqFYfh+Ndaf02mQqVq4OJVqFLEKcuPqhVyIibwCm6qNWiFHlKUH74bx48fxcF/12F2R2vs6lAHPQPC1VNGsUGXcS02J8p659FSqnJBeW9HxF6/iluJZclRqJc/RpUOZgIVJ5Gr93R0c09JVkAM6zLtMGRIe5RlseK/7mGAomw94sqVgxj92+e9kCV52mL1ecb0QQgeXduJ8eVfYiXTux1xTGuBVu3El5elykVkXhOT9+/Hv+tnoU/xEExq1BRzAvUfMEXQWiw9JUetrn9CPcWekcPAEz3nj0P1qKX4wyM37GwdkKdMGyy9roChtY1mJEZ4//QBHr1zQLVWjVCSqbGJJG8RuG09joamLeaSEVN4Wk7gWxJIowVSIPLOQSzxG4KB4zfirlkpNOlUB0yHM+WDqf+oO0mJV+OVjxTpKB8lJlcF6U9JhSrF0tiPURWlU6WKlOL11E6KYMrm/N3cPFCsbA20HLUEIyu+wLYl/+JpWoId6uyS968VYWdx9GYMLCwMEBSwBVdT02ZPzZRMOi+xsYWNKArPwj8w1S9zOOTMBim9Q3j4O4hy2MI6o42j2i4xjB1KoOn48WiZMwwBOy6p110yvSyxOXK6senCGi0wfOVctDa7hEWrziWt8ahtiUPglq24na02mlWzzFCvPgGxSZEOWHrmFh7cPI9zF6/h7qG+KCiSoWjpwvGjrehTmNh9HmI7r8bSAW3Rechc7DzJRh20EQMnHcLnThYmlM//5QS+BwL6jX3sc1zePA096pWCh3dHLLxpgyYzDiDw8i7496kIO/071H7EhD7EE8qGHFaaBOIcsGGraFHBD/Ai3YaU6aFUmYnboavQWMioWcnUrc6GQuLmmfrLRxBdSqZGJHUrjkLSMJw+qbUoF/cAJ04+htSzCAomdJg/XcOczkNw1nMc9hyYjMpP5qHrqCN4o/fmUeLFmRWYNHEZTguBIMjm5IlU0xSl2e6Ri4eOJ5ZPb07g8BVC3t9KgnVStY4M2sNkDbVl+L5qWewFk6IiD1s83bs/BBZVa6Gs7jRZomdC/JLCzNYJzjZvETCWrQdlq4+ODezV4iLKiDu481yOPHkdE0d0IvOi8PIwxNuwMEQJeH4/o+r4LZxAlhLQ76fHBmL19ABEVOmGFTOboEpec321HaZmtWnQCAS6NUStonYQhZ/DinFb8Ma5E2oxNQX1IbJCxVpMXYX1kvpNtcJf3vaQvL7MXgi6ykfC/I07vxLjFxPKu0jxMGAGpl62xh8rfWGfyssn5VwJb5/ex/37xvj0JhRXts/CuCNyeE+tynrHqqnb39GnzQI0nt4RveR/o2F+JYL+Nw3TbzqjzaYGbL5elet7nJ3YHVPDfLDocFsUsAZmTDmCSp37Y1T1g5hVQ2tOOfYi5vQYhPnBwP/eeeDc+N8yPm8f/RIPgl8gOi4YL9k2xFimonQryBJG2XLD1c4YIgMPtOpWCcv6DcdfeRXowrZeXlg4Cv+iMma0cEu+uJimPTG4tGo6zsqKwcPRnEkjPsLZ9bOxIiwnWviWiFfJyayylM9xaNFqPLIvgrzWxkxzNwTnN8zCyieOaPV7yWSKPMrn53D2vghFu5ZIvttLu4LT9IttrAy/jVvBobj/3wkErF6DveH50WuFH2pr3oRi699QtsAnzJk4CMtNOqEc29/69PQSTNkbC7e+XrDJ0DOW8pPHz3IC35qAfmNvXBUzTlfTF/XWtpSUyG4nxeUFfbA85A3iDG1RsPxfWDxmIEolLrCJkbvNXCx/MRhjV/bDn9M+QWxkCbv8ZeDrapLh4bhI9pb94dAgLAn5AFMnLzSbx+bMa2VgsY5JANrbG2Ez27ZXeowYMhMrOBYsjcYzt+Lv5rk1LzRTeI/ZjLWWI+A3vxdavBLB2r0qeq8dg77e8UOOT5dm4u/FUWi4zA91NSvDNvXGYmT1CugzfBb+LD8WXgk9UANXeFfJj7VbCJW9XT9rV0dc0CK0qMFGPQlTxw+7o+JGMWzbbcJ/0yuyhlEMx+bzseH9CAyZ1w8tZgHWhWpjzHo/NHfUaaXSsofYrpWnQdixeRUmh75GDOOVq3AF9F45FL0rJmx/yayy3iMy5BLWLvkHtx9HQmGYHU6srH6rhqBHheRbbeLu38Y9pR0asE5HqgvVafnFpoGCFrVF3SURsHX1xG8+oxHQuSm87LTWWNhLrPeKJYgbORXT2/hgwAcRzB3cUb7bEozr5Y7Pmgn71r9sXj4noENAFBHxUm/y4buipHyMRfVLY3QOfwSvaJB67+67Mvr7MoaHOP6+6oNbwwl8CwJ8gPotqPMyOQFOgBPIYgK8sc9i4Lw4ToAT4AS+BQEuOP4tqPMyOQFOgBPIYgK8Z5/FwHlxnAAnwAl8CwK8sf8W1HmZnAAnwAlkMQHe2Gcx8B+qOMVtbBndD1P3f07Ezh/KU24sJ/DTE+CN/c9Sxe/ZH0Ht2o1LCXGXM8OvuGvYOHk+dga9y2BYCoGFfw2bBRbNk3ECvxqBr9vYK+5gipeM/YEWi2WT8JFYo8Pe+GBX9HorOhawgZlcwuLiSGFslQuFqrbD1ENPMhSrPu6/USgsd0T3I9pBtGJwsKsD5MXG4loGIj/+qA9A3A1/tGnYF/8L/nGc/RFt/lGfD243J/B1G3uJM9qvu4Jr166pP/8F9IGn9t/sxkbg8aNIlBpzCoFXz+HQhvGoJ96PoQ1aY1EwD0jCH09OgBPgBDKLgH5jr3yIf+cvw+EHmTF0lyGHiwc8PT3VH498ttCPZSWGeS6WplBxFv2wNcbN6opCMf/hUmJ8gMxylQXJfHsVS7tVg4e9OeRSOUytHJCvzN/YG6VVhvIlTs/7CzWKOiGbsTGyu3qjzaxT0P47Y3p9Fov6tUD1EvmRy9ochlIZjC1zoea9FsgSAAAbI0lEQVSc28lHJPQC/3YvjOxWnuga8PyzpkLStTn2GHo5GUD62xTciWYjKRbeOH4UJYFNp33xESQV1zC2mBwOXQ9qqYZtRhMjOSrMfpikxfohCOv6+sDNhgmYGFujQPUpuKAb4Tc9Pip1rhH1UNbDCTYWRpDJzeFYrAGG73yExAjRQmzOvGrnOXECnAAjoB8b510wzm0Yhel9/oazTyt06doFrWu6wfKrBwhR4MPTQAT4b8EDx9/hV/rzYrKnXquxODO6Ebpuc8WQWTtQJ68ZFJFPcPeBDPkSJUY/4NxoH/gskKOt3wKMLm6O50dnY8CQ+mhjdgU7O8TH0FE+O4ql83dA1GE6ZozLBztzA8REPgPldU4eRyXuLo7su4mI18C+o3cRV98mg4HQBNgsLY3hh2+g86VpqNfqIKqt3on+hVXVKoKBpaPw8ugldnSvibbbbdB23FrMdonBncOLMem0NlEBfOg9bh/fj4um3bB6Q13koKc46T8Ufn+2hvXVw+idlz1ImWVz6pXNr3ACnIAOAf3G3rwyxp0IRp9ru7Dqn8VY1Loohll648/OXdG1vS+KWWd2IxyNgDbZYNBGox5lwnrB60fDJ3ls3kyouDi8ePYKsKqN8lUqoLQm0HuZKklZ07ONbGTxEDUW3MKcFhrB7VKFEHPBCa3XBCCsXQ/kShwLGcGzfjs0rpmSaIkmT6kXBi6fC5MDhGrdywhveBNNSt9msLGSjWsBWL2ygozFaLdiusAFC+pXa3oAlaEbMHvDc3hNPIKFPVzUgeFqVJXg+PwTCNfcLIiPJq0kdxnUr1VVPZKrXDgKx/L2w+7DL9Erry17DWWOzen5xK9zApxAEgH9aRz1NQNkL+SLvnP/xfXQu9g90AUXJzZFyWJ9cFhfSOgLecpQefwpXL16BeeO7cTi7rbY3swb7Tc/SZpe+MIS4m83Qs0Rs9CMlqOma35UajUUC/feTharPDbwLC69f4OA9rlgZGgIQ/XHFq22RkERFoInGV5GYNEpy3fF2LHdUME2FdRp+pa+zWnenoGLcUH/4boiF7zKJEQA1b/5c/mIbVyQx4wQ8Soik+tU30Z+hhPgBFImkEYXUIE3QfuY7N4/WLx6D+6Zl0HLbr/jMzqNSSUzNSumNqoTqlYEM0d3NqevCiFcBKXKsx5wkBM6z98Kvz+0e9IpO6A6KxJL2PSJAnE688txKpUs9bX4Q16gDVb9Vxv99/wP6zeux4SG0zC61FBs3DIKFZnQilr5SpIH7dfuQF/P5PNWIpkVcqdBK3XrvuxKujYnZq/LVbvceNUwNY/UDrZbSsxWFZRMsCTVQwifFF+IrHyGUz/vtGxO1Qp+gRPgBD6DgH53MzYc59eNQ7tKeeFYuBlmXbNDy0Xn8ej+SawcXA0O+ncILjb60X2EkRWss6eViTKZepSQzMVMV9RWHMFEPZ4m9RxZaOSgW5EQ29ojmfyr1BpF6nfHpLUncefyZHhcmoghy++r75MWKo1iMqaCdfUjnAqqpkOSPgVcbFJYXE7POiWenViIUSP9cfxZiq1gehnEX0/D5sQMDI1gyGLSR0amUI7YGrYMQuS9u0jNjHjfQ3B4/00dWcAkEzOdT1o2CyPDU3ECnIBAAvp91ZgrWDp+E17V6I9Ni1rBp4CFvlKVkMyVYVjbsx+ueDZH/RIOED09hUVD1yPCtSfqqxcQEw5CVNgd3L1rgo9MhenCpokYtl+OyvNrwS5VtYrkBohy1ETT6qboPLEjRtsNR708hPs7/DD5nCmqL/aBqtPO9IpwbFpf7DeuhspFnWEl+4SwMxcRFmOIfDnM1KMNkX0zDO85DzWm1EfNNwPQpVYh2Eg/IPxOKKzqdUUtp7ReUsltUn+LPYupbJ5/+n1gzbsiuDWjXAbn7dO3OaFUgzxF4Gn+HFsnjUEFBVPeinuCoE9F0LVRIRiIcqBafW/Ie09Bl3HZ0atSTkgizuMxey8k1ITIvikG/zUTPpP+QCPlCHSu4ATDqPMIZWkSVmkym0+aNqeAk5/iBDiBLyCgUChI9Uk6lMSG219+xIXQXr+WVD6/NZlIJSQzd6RivoNp852PiXkrI7ZQexdLMpSISCSSkNzMlvJ5/U79ll2iiAzaoHh+gma0KU95cxiRVGpMOfKWpzYzTtDzBNeUL+igX2MqkzfeHonUlKzzlqEmo3fRoxgtdxUv6Ix/N6pZOCdZyA3IwMiKnIr9TnOuxiYmiguaSKVkOaj9nui0OSmf085unpQtmwd12fGMMugSkVCb1VbEUvDWflS9gDUZSw3I0MqVyg/eR68TCo0NpT0jG1BRB1OSSlSsrSlPkWo0cNeLJLtiw+jg5FbknTc7GRlISGqSg5xYmsG7XyalSY+P4hHNriAjw0Yb6UMCneh91MlWRsX9blBcMmLp2Jw2XX6VE+AEMkCAhzj+ghclv5UT4AQ4gR+FQAbnJX4Ut7idnAAnwAlwAtoEeGPPnwdOgBPgBH4BAryx/wUqmbvICXACnABv7PkzwAlwApzAL0CAN/a/QCVzFzkBToAT4I09fwYylwD7w66LK4ahz4LzSVEuM7cEnhsnwAl8BgHe2H8GNH5LGgToNU4vn4ZFhx8ijeAMaWTAL3ECnMDXIPD5jX0WqVCBIrC1kxvsWGx0A7EYBoaWLIyDD7rMPYXnKUQG+BqQvmmerPE8N7cdyubJBiMjS+Qp0xZzzkVkMDa+Eo/nV4FcWzFM/X9J8hj36TiatYpgStyfXlbfZlkZTLsnVI3rE070zQupVUOs0xYkYPTebG0BG1k+9D3xKd7rT/ewdWgDFHNkWgdyU9h5+KDnikC8TQgVpInBn0x1TcPTwKUfTiUE608vn3QY88ucwNci8PmNvSSrVKhi8TIkGK+Lj8Cxy5dx4fhWzGhmioMDa6L+lGs/ee9RiZAVbVC3/36Yt5qHbVvno5XFAfxdty1WquIYZPSQ+2D6pXjVsHj1sEAcGfE5oZczWvDnpBcjd9u1uMwUzk6NrwiZrAL8TjLbr6xFu9xCxRUMUbZrV5T+tAf+q+4lCcsoQ7DOPwAfvLqje1lDZtwHHBtSG38ue4e6M/fg/Lk9mFk3Ghs718OAA+/ijTcojn7bT+HMmTOJn9P/jkEVKxnyVK+GAuq4EwLy+RwU/B5OIDMI6IVLUATTznlL6dD9txn6837dEALKZ4vJR25IvmuiEv+gN+76OComJMyA9p8AK8NpUQ05GTZYS28Tz0fSxsYWJC0yhgI1f3+vfLaJOhXJRVbGUpJITci2YFXquuwqvdWKUaCMukJLulYldzszkhnIyCSbPeX16k97IpMKFJJGnVodCqEQWX1mKIQ3m5pSNgMX6ntSO1ZDHF0bV4xk2ZrRZpVNsVdohKeMcjT9H73U+KF8uYGaZJdR4VFXWYCEhCOaQg/OoE4+hSmXpSFJZcaUzdGT6s28okmjoNB5lUlm2Jg2fUryVf9/aecTe3UkFZLlpG6HtcNERNOBLvYkK6qpC024BAPn36iyuw0Zy4zIumB16rX6Or1XFxhNu9vnIEOfxfRMN37Euw3U0MSGOu3Tzl9JESvqklxem5a/0r0hli4N9yDWzqr630kfsXYoize0u2Mukjr9Rfs0j+KHU/0pvywPdTugeaJiz9PggjJy6XeKEmsj5hT1c5VToZEJDHVosfrf1sqR5G796HjCIy4kH+VL2ju0JpXIa0vmLByH1CgH5avQlqYdeaoTSkK/dvgZTuBLCOj37DVKVXUL5IZH3d6YsysIb4SOmlN9+6hUqK5gk0aFquEXq1BJWZx5VcxcBRIi8oqyFUWzYQux9dAZFhd/C/wqvcGav5pg7NmEAPwJqk8SNGJKVSfOnsKBzQsxokM1LaUqIWk0TiaqUN2KV6FK1feUL5hX8UVlk1Ds2x2YNDpR3MW/ATdgUq0BqrCIz/T8DE7fFaNM7cp4vbgeHO2rYk54JdQsLcbt0+c0UolKPNnUHt61huGQxAcD5m/Erj07sGpKdzQro6OclbIpmrOZlU98dhRriuLd5mLzzrUYWT4CK9vVQveAV6xFFsM+pz1EL5/hpWpw8ukFgu8/Y31iVp0vwvGcHJifQnvuBvDovRPXg4IQpPpcXIU2LlIYebRGSybPGH9YwGfYMFSOXI1RC4IQx3r1q8cuwSufkRhSxTQ+iSQn8uaRIezQDlyIip+3ibl/GheeZUfJ0i4pyLkB709MwMCNCjTyGwpvVXRu1SEkH5WS18nDuJajNVbsOoj9W2agRbYTGF67Boac0IwiNNnxfziBTCWg17NXvzpi6WXgdprRow65W8nI1KUKdZq0iS4/1+6FJn/HpNyzZwHOWNAtiSrQGWu7RCae1C0gLGM9GJ2eveLjc7q+bQCVsZBRwYFnKNWO6vtt1MJSRmWn36P4WGgfaHsLS5K696QDz5OH40ryREiahNQKCj/uTyNGzKdj4dqB5AS+e1kPb11DZo/nCLqs6aLHXfej4jJrarktfqgRe3kEecpsqfP+d3RxmAdJ1SOBt7SnQw6SFRlN/6nuiz5BfVwMyNJnIQWn5hYjoO7Z6/aADf+g9e809grIJyM9+2SB0BR3aXo5ORlV9adQhZJeLq9NRg5d6GA0+/8qXzI1rERzHyko5nR/ymvqS6vfaDNMq2evlY71tP/tlJdk1jXJ/5bucxpDgeNLk4lNQ/Jf1p6czMrSlJtJ4yJVLtG3V1GrgiZknNubmndrQ+Vz2lGFsSdTDsinCGGjTTMy8Z5Ot3WYp5tPioHirtLoYux3VnsphesOXgQ+TjwZJ5AeAf2evfpVkllKVZmnQhW9ozUsDQxgYGyLwi3WQ9J8CbaM9oJc8+pjUS8xu3MNFHWxg1U2GzgV64d9HwifPkZrFjOFqD4JSZPwrv1CFSpRdtRuUQeWt7diS6Bq30ocrm3ciOu2DdHGx1znhS5FiTGn8ODBBUwul1wGURl6DuceS1CmSUM4pdchllfH1HNXcOWK5nNuOmpqFOAzlE9GuxtiZ5Qr54S4G/8hKE4E8zyusH4dgpCo1zi48wRiFBexa/8zfAx5iGd2+eBqnNECFHi4qjM6riS0Xr4KXQroSmdKUajvXPS234WendbBotcs9HRLHmb73ZO7CH7riFodW8CLxcQWSaJwZeNyHHikv6dIcX0Z/I/KUb9PO+RLxpyQkXwSvZS5w6dqbkRfuYDriarsGWXA03MCaRNIpbFX3aRSqtqN+cN7ocfwVbitUqrqkYZSVZoqVEyBqkJddJi0EROrPsdGpkIVlsH1RVmVCTh9NRA374YyAe9QnPBvBXdNQwVlMBY1r4uBB03QZPJGHDx+EFsWdkNp0+QB8eNVnx7g0pp+8FIeZ0pVhZC/ymgce5WkziQkTdpIhV+18GmLhnZ38b/1FxDz6TRWrLkN1xbtUVHjl4QJr9iKIvH06XumoGUBx1xWkLJ97E+fvIPIxg42qoZGJFbrDYjZTqV0D5ElnIsURdGimk9hZ1gm3CYgH6GKYPp2MAUwpnLFtv+odQMM8rkjnygE9//bjc2nSmLQoNK4uO1fXLwTDMrvjvz6Kgv6WWqdibuzAJ367oNt35WYUUejHax7h1Ep9OtdGQYG5dClW0molmUTj09HMbLtNMT23I4NI7qg59jlOBq4Bx1oFXqM2oPkkytxuLx+PW5mb4DWtbIlV13LUD7aBjAuqvpjjDL4s9D1kn/nBFIloN9CfKZS1ddSoUqwXGTmCHdPdxR0zQkLXY3v2Gs4c/EjPNv7YVDjiiheqDBKlisOJ8MU1E+EqD4JScN+ll+sQmVcCX+1K4iQdYtZg78A65554a9OJZLEQmy8UDafEmf3HsJrzfuIXh/GvgtKFCjrhRzMPbFjCZRwUODMlu0I/YK1FSH5ZEgRTPuRi72DQ0ceQVa0JDxZp1tk7Q4P61CcnrUcp0u3RPeuzVH6wmpMPfQAOQt5wCKFakv1CY4NwpxOw3Am7xAsH10OCdPn+ulFbEePjDXOBpDqvEyUr9h8f7gcrmydKlHMxaIkyhc2QlRoKJKJf8Vdx85dwbD08UUFnRFIhvLRNlD5ECdPPoKBRxEkG3DoO8HPcAKfTUC/DyVEqSoLVagEeWbgxhp4KTavm4T5Rf5COUcTKCOvIDRaW09ViOqTkDQai75YhUqVjwEKd+yGijP7oGtPgrHvWrTKo/X+NSiCjn1rYEGXvmhZIA69vYCzswdgK3ywqD1ToFJlIfNGvzH1sKl9D1SudxN9WleGm40ccVFPEYwS6NTAPWmBkaIQcuM6rmu9LEWSbMhdMCfMhOQjRBFMg1wZeh57DtnC8mMwji4Zj2nX86Hb3ibx6mMGHqy+YjB39zU031wftvZxaFlhAFpsZQue3Qom2hv7Khh32KgmMuytemQQFnQD1y2NYZ/PBdnVPijxcFkfjD1tgQaLa0J6j/mmrh4xTHPmh3M2/cdbfVnnENuWQ0X3T5gysgcWmvRERUcg7Pg8jNkZC88h5WGnVSXK8FM4eUeMkn1+05OpFJSPpusee3oRRswjVM4rxYMt4zHuvA2abmmCnPrdL11z+XdO4PMI6C/QClCqykoVqhS3XuovRUQHB9CIRqXJxcaM5FK2rdLShnK7l6XO60PiF2iFqD4JSZNQ9JeqUCW68Jb2d3Fi20UL04jLuguLLJHyFZ2d04a8cpuz7YfmlNurNc0680pnW+wnCt4zmdpX9SAHczlbEJeRmb0bVR60h+J3K6ayQKtaNLdoRQGJq9zp5UOUviLYS9ozpDoVccpBJjIJU/rKTnnLt6Gph8K0torGUeCYoiR36UXHNMJl7/Z2IkfDMjT1bsJit4LuTSujv6gs9WJpEvbbhtM/bFsue/J1PnKqtvCp3tbhqDW+ZCj3ocV6ez6JPt3fTsN/L06O5jISSwwpm1Mp+mP4DgrWqZLow90opzSPzpbZpOcx3XwSt6aWJO982clQakQ5ClSnnolbU/WfbX6GE8gMAlyp6vPekfwuTuDzCLCtn3Mq58Mgm9WI2NREb3TweZnyuziB9AnwQWP6jHgKToAT4AR+eAK8sf/hq5A7wAlwApxA+gT4NE76jHgKToAT4AR+eAK8Z//DVyF3gBPgBDiB9Anwxj59RjwFJ8AJcAI/PAHe2P/wVcgd4AQ4AU4gfQK8sU+f0bdP8f4Rzu7ajUsvtP9I7NubxS3gBDiBH4fA5zf2WaVUpWIZ/QDbh/+BUk5WMJIZwpwFy/JqMAjbQ7QiiaSTJvZ0f+SVF8Cg89qBreJwYUhByLWVhtKru2+gnBV3wx9tGvbF/4K/IB5Cen6xv0t6fWkZ+tUvAWcrY8hNcsC1THNMOhyuFa9FSJp0C+IJOAFO4BsQEPb35CkZJolXqqrNIkuqDmXwUrRotCYpZWwEHj+KRCkWrXFOHRnePmUxRaYOwdAGoTAJ3I9u2mEBUso/8RwLPDW+AZrNFqHpuKWYViYnxK9u4cyxSGS3SnhXCUmTZiEZuJignDUSx2bWhnFMBO4enI+hTDnr6vvTODlYE8YgAzl+F0kV97Bm0Fgcs++IUSsmIieLrb91wjAMb/QJjkFb0NKWBawRkua7cIYbwQlwAnoE9MIlfG9KVYpQmldZRkYNN1BC6HW9Px0WkCbmVD9yleWngee045jH0vnBBUiWpy8lE4zSK0DrRIrhG/SVsyg2lPaNb0alnSzI0NCSnL2a0/j9oVohA1gkhIgztLBvc6pWPB855mBhHgykZGThSD6zb8XH/I85Sj1zS1IIByAm6457meaTtl1fppylykkZE5PMvujjvclZ6kBdDyWVJCRNWvj4NU6AE/g2BPSncb43pSpxdri52yPuzAasDVLpGaVwCEmTwm2Zd0pXOSsKRwf6wHfiTbj1XYaAgMXomTcQE+rVwICjUYnFKp8dxdL5OxD1W3/MWLkdB44cxM61M/C3j0ZhSloaww/fYHHuO8JZ5oyOG6/FKzIF3cTpcd6J0THVGX6hcpYqC5FUqqXKRHgbFoYoA1fkd04aAApJk3lceU6cACeQaQT0evbql853pFTFrFFGXqR5zT3J0tieSjUdQosPB2v0TJPekOmlUffsJboBs+K/S76gZ5+ScpYy7B/yMZFR6Yk3k3rKsTdoQikWoK3mYnqiUSPSVfdK7X0fe24g5Zfrjkp0U3+hcpZOdtF3l1PDXCZUeOAJSlIRTp5ISBpdK/l3ToAT+DYE9Hv26tfI96VUJTIvge5r/8Oj/1ahs+t9+DfxQIEafjgRkbQ7RUgaSJzQdvXFJKWmKxexpl1GdFqT3rFpKWfFXr+AqzG5UaFS3qSeskE+VK7khJj/LuLGV1Ej+kLlLK3uw/tAfzSp2hOBFRdju593ijHihaTJtB4Jz4gT4AS+mEAaC7Qqpap9WLP4HyxevQf3VEpV3T5XqUolKcHUqsqXgTTICZ2ZUpXfHz2QK5VXTcpeiWGetxo6jq+GNp1X4U+vjkz5qhpuTPHSms5IPU18nnLY5C/ClJoS3I5DrG2CsGHKpaZ2VqWcdXxWXZgbWcA+l76gSuqbJDOizJFQerzCU2q2ZN55QtT5yWhQdwJessX2w3N84aj3hAhJk3kW8Zw4AU4gcwjoN7ffqVKVtrvS3NVQ1UOM0Dv38SkVDkLSpHKroNNpKWdJPUuhmCwEx4/eY8qymkM1p36UqTUVKQEPXYnU9Eo0NIIhkyOMTCaZpHvTlytnKZ9uwl8N/fCs4Xrsm5dSQ892XQlIo2sZ/84JcALfnoBevw3fm1KV8im2jBiLG84+8PZ0hCUTgr532B8zThqgxISSUCvDCUiTldqeIodmGNx5JmqNb4oO8pH4002J62vGYnygKzoxtSb7DHbuDfIUgaf5c2ydNAYVFFVhE/cEQZ+KoGsjrW2eX6ycFYOz04dhK/liYQcnvLp5Ha80z6eYSUIWcLKEBELSfPuHmlvACXACKRDQX6D9zpSq4h7QjhEtqEqhXGRlLCUDmSnZFqxIbSYfpDCNYBEJSPN1t16msODCtl7uHduYSjiakYwpTOUq2YTG7g1JtrVR6AKtasE8eGs/ql7AmoylBmRo5UrlB++j15qFXnXpX6qcxbbcziwvS2GbJ0heaym9UJUlJE0KKPgpToAT+PYEeIjjFF6A/BQnwAlwAj8bAf05+5/NQ+4PJ8AJcAKcAHhjzx8CToAT4AR+AQK8sf8FKpm7yAlwApwAb+z5M8AJcAKcwC9AgDf2v0Alcxc5AU6AE+CNPX8GOAFOgBP4BQjwxv4XqGTuIifACXACvLHnzwAnwAlwAr8AAd7Y/wKVzF3kBDgBTuD/xdXWfM1VlhMAAAAASUVORK5CYII=;" vertex="1" parent="1">
          <mxGeometry x="-219" y="240" width="379" height="106" as="geometry" />
        </mxCell>
      </root>
    </mxGraphModel>
  </diagram>
</mxfile>
